<svg xmlns="http://www.w3.org/2000/svg" viewBox="0 0 114.28 94.92"><defs><style>.cls-1{fill:#555;}</style></defs><title>Asset 1</title><g id="Layer_2" data-name="Layer 2"><g id="Layer_1-2" data-name="Layer 1"><path class="cls-1" d="M57.37,80.06c16.16,0,32.32-.22,48.46.2,2.78.07,6.2,2.25,8,4.51,1.06,1.37.24,5.29-1.07,7.11s-4.19,2.89-6.39,2.9q-49,.27-97.94.09c-5,0-8.29-3.18-8.4-7.43s3.31-7.32,8.4-7.34C24.73,80,41.05,80.06,57.37,80.06Z"/><path class="cls-1" d="M57.36,40.06c16.15,0,32.31-.22,48.46.2,2.78.07,6.2,2.24,8,4.5,1.07,1.36.25,5.29-1.05,7.11s-4.18,2.9-6.39,2.91q-49,.27-97.93.09c-5,0-8.3-3.16-8.42-7.42s3.31-7.32,8.39-7.35C24.71,40,41,40.06,57.36,40.06Z"/><path class="cls-1" d="M57.35.06c16.16,0,32.32-.22,48.47.2,2.78.07,6.2,2.23,8,4.49,1.07,1.37.25,5.29-1.05,7.11s-4.18,2.91-6.38,2.92q-49,.27-97.94.09c-5,0-8.3-3.16-8.42-7.42S3.3.13,8.39.1C24.71,0,41,.06,57.35.06Z"/></g></g></svg>