<svg xmlns="http://www.w3.org/2000/svg" viewBox="0 0 444.24 134.56"><defs><style>.cls-1{fill:#404145;}.cls-2{fill:#1dbf73;}</style></defs><title>Asset 2</title><g id="Layer_2" data-name="Layer 2"><g id="Layer_1-2" data-name="Layer 1"><path class="cls-1" d="M74.66,65.66H46.06v6c0,18.32-.16,36.65.11,55,.06,4.73-1.55,6-6,5.85-7.62-.29-15.27-.08-23.49-.08V65.59H0V40.47H16.62c0-2.75,0-4.7,0-6.66C16.7,15.31,28.45,1.91,46.82.37,55.73-.38,64.77.24,74.17.24V24.91c-5,0-10,0-14.93,0-10.53.07-14.11,4.2-12.67,15.23,1.65.09,3.41.25,5.17.25,15.66,0,31.33.13,47-.06,4.1-.05,5.45,1.21,5.42,5.39q-.24,40.72,0,81.47c0,3.72-.87,5.43-5,5.3-8-.26-15.93-.08-24.48-.08Z"/><path class="cls-1" d="M288.84,132.05V40.91h29.55V53.59c2-2.71,2.86-4.77,4.43-5.93,3.27-2.41,6.82-6,10.39-6.19,14.25-.71,28.55-.29,43.3-.29V51.72l.89,1c5.64-12,16-12.72,26.77-12.3,2.26.08,3.84.45,3.79,3.28-.1,7,0,14,0,21.74H395.44c-12.75,0-18.56,5.55-18.77,18.56-.24,14-.07,28-.07,42v6h-30v-66c-5.84,0-11.18-.58-16.33.15-5.84.84-9.19,5.28-10.52,10.8a48.31,48.31,0,0,0-1.15,10.87c-.12,14.65,0,29.29,0,44.33Z"/><path class="cls-1" d="M281.15,93.45h-61c.07,5.91,2.45,10,6.76,13,7.52,5.13,19.49,3.35,25.47-3.48.82-.94,2.54-2,3.52-1.73,7.87,2,15.65,4.36,24.1,6.78-4.44,10.31-11.66,17-21.2,21.29-20.07,9-45.43,3.25-58.1-13.13-13.57-17.54-13.65-44.26.27-61.39,12.49-15.36,29.24-18,47.53-14.41C274,45.37,284.89,70.76,281.15,93.45ZM252.47,75.74c-.39-9-6.89-14.6-15.91-14.85-10.25-.29-16.81,7.22-16.21,14.85Z"/><path class="cls-1" d="M152.21,92.23q4.66-15.42,9.31-30.83c1.72-5.73,3.27-11.52,5.23-17.18.46-1.33,2.23-3.1,3.45-3.13,8.8-.27,17.62-.15,27.11-.15-.66,2.14-1.11,3.83-1.7,5.47-9.74,27.08-19.56,54.12-29.2,81.23-1.23,3.47-2.79,5.12-6.71,4.89-5.81-.35-11.66.09-17.47-.22-1.58-.09-4-1.37-4.46-2.66-10.58-29.07-20.94-58.21-31.33-87.35a8.85,8.85,0,0,1,0-1.78c9.21,0,18.45-.11,27.69.17.9,0,2.11,2.27,2.54,3.68,4.37,14.32,8.6,28.68,12.88,43,.47,1.58,1,3.14,1.49,4.71Z"/><path class="cls-2" d="M444.24,116.57c-.12,9.41-8.62,17.89-18,18s-18.38-8.79-18.24-18.27,8.61-17.9,18-18S444.36,107.08,444.24,116.57Z"/></g></g></svg>